<?xml version="1.0" encoding="UTF-8"?><svg id="Layer_2" xmlns="http://www.w3.org/2000/svg" viewBox="0 0 181.863982587286955 55.170430736993694"><g id="OSAA"><g><path id="emblem" d="m52.621723121517789,50.175374076475237c.03081068825486-.006921589874764.073085259742584.026893260645011.088442537278752.04460580144405-1.203563539560491,1.23358112898859-2.747078081918517,2.078784159402858-4.228274282089842,2.500232076312386-1.099042725762047.312216576647188-2.205704007079476.364537066760022-3.338561583415867.237641252397225-1.742654451098133-.19534264759568-3.280016469096154-.893654159539437-4.722807458740135-1.841911972558592-.863684636729886-.567594403115436-1.718092420354878-1.148983919392776-2.572524237257312-1.730421502285026-.981327631270688-.668293922512021-2.064171914105827-.79057534365711-3.203927047034085-.604461482522311-.617559630062715.066908702106957-.149198715086641.363768001239805-.054603653451522.410656965965245,1.531209493646202.749838903258933,2.972414285658488,1.648131489335356,4.319096115906177,2.687139036303051.915163961431972.671370184654734,2.547914139900968,2.245671381957436,2.547914139900968,2.245671381957436l-1.221300113680627,1.045905103504992s-.932107436596198-1.044366972413627-1.338150009351011-1.450457611761522c-2.679448380857139-2.790938851117971-5.052015577227394-4.017574356959813-5.578080441095153-4.320586180389-.092263831677883-.053065522386532-.180682335709207-.103823848154207-.274532365105188-.103823848154207-.093825996113083,0-.182268533388196.050758325767674-.274556398413552.103823848154207-.526040830585771.303011823429188-2.898608026955117,1.529647329271029-5.578825473357028,4.320586180389-.405297540518404.406090639347894-1.33735691052334,1.450457611761522-1.33735691052334,1.450457611761522l-1.222093212503751-1.045905103504992s1.633519244009221-1.574301197302702,2.54870723874501-2.245671381957436c1.346633763664613-1.039007546967696,2.787862588934331-1.937300133044118,4.319048049327648-2.687139036303051.094619094909831-.04688896472544.56295597659846-.343748263858288-.05457962017681-.410656965965245-1.139779166211156-.1861138611348-2.222623449047205-.06383243998971-3.203903013725721.604461482522311-.854479883493696.581437582892249-1.709632699383292,1.16282709916959-2.573319490288668,1.730421502285026-1.441995736614444.948257813019154-2.979357754637022,1.646569324962911-4.722805304535541,1.841911972558592-1.132064477484164.126895814362797-2.238773825445605.074575324249963-3.3377684845982-.237641252397225-1.481220233472413-.421447916909528-3.028580103506101-1.272034406101739-4.232143643101153-2.505615535119432.01535727753253-.017688507434286.061501210044298-.046143932511768.092263831734272-.039222342637004.102285717005543.045350833685006.16532505817213.077651586416323.26455854634969.129203011012578,1.788870483453138.920571453516459,3.673826093076968,1.027471563831568,5.611102192779981.654450742764311,1.322792731879417-.254560694304018,2.551759467633929-.784446852600013,3.783033399984561-1.310463649879239.882142209738049-.376073049950719,1.753445401938734-.790599376967293,2.661735840109941-1.090534938262863,2.35410962336482-.776756197175928,4.739750933939831-.767551443965203,7.135390096576884-.160734698212764.039222342635185.01076691758135.079982816365373.016150376392034.121512355615778.021509801854336.040760473677437-.005359425462302.082314046236206-.010742884272986.121512355615778-.021509801854336,2.395663195919042-.60681674575244,4.781256439902791-.616021498963164,7.135414129837955.160734698212764.908242371579036.29993556129557,1.779593630368254.714461888312144,2.661687773519589,1.090534938262863,1.230504866794945.526016797279226,2.460264701412598,1.05590295557522,3.783081466590374,1.310463649879239,1.937252066405563.373020821067257,3.822231709333209.266120710752148,5.611102192786348-.654450742764311.099185421586299-.051551424596255.162272829316862-.083852177327572.264510479784803-.129203011012578Zm5.651117634250113-5.130436229186671c-1.024419334955383.786730015939611-1.684277569784172,1.047443234607272-2.534094993419785,1.338943108241438-1.277396713230701.438367358825417-2.654021151383859.526809896131454-3.988373899670478.596794860404771-1.763443253987134.09228786501626-3.465361264661624.168401320363046-5.20347342234345.450648374169759-.009204753207086.001538131095003-.018457573012711.003076262191826-.027686359528161.004662459874453-.109231340215047.017664474180492-.159196567125036-.028479458354923-.123843585513896-.066163669893285.00620059094399-.006152524329082.017688507439743-.01461224529703.026148228405873-.017688507457933,1.549691099962729-.567570369868918,2.602541826683591-1.769643844925668,3.395448400229725-3.278526404590593.549112796879854-1.045160071276769,1.448150415200871-3.087053117993491,1.698096716248983-3.420803529810655.005407492088125-.006921589872945-.000793098799477-.074623390864872-.016919441884966-.087697505070537-.117667027909192.038477310399685-1.823430366293906,1.490473053254391-2.597879366836423,2.209549334847907-.960586895002052.892861060679934-1.865032005414832,1.846526365785394-2.826339899347659,2.739411459780968-1.501985003051232,1.434307235418601-3.661521044366964,2.064171914129474-4.443636667076134,2.26720521714924-.017736574025548.00459035995118-.053089555667611.017664474151388-.061549276577352.027662326216159-.023071966294083.03001758942446-.034607949428391.057703948925337-.039222342693392.070778063156467-.0015381310659.005383458754295.000793098857685.009204753181621.006128491044365.009997852039305.010021885354945.002307196582478.025403196195839.006128491018899.035401048233325.008459720940664.606792712445895.138407764216026,2.359517115424751.519095207369901,3.258554733798519.759067689723452,1.382755810798699.370665557829852,2.768611917097587.681392070004222,4.201381021444831.782115622680067,1.551974263295051.109231340238694,3.09702693669351-.05383458790493,4.539793893081878-.591387368320284,1.640416800581079-.611407105696344,3.66229010994175-2.055712193159707,4.816657488116107-3.786109662140007.003076262188188-.004638426562451.00612849106983-.01230504868181.003076262188188-.01384317974771-.049989260247457-.026148228434977-.108462274693011-.009228786517269-.117667027900097-.003076262193645Zm5.281966174197805-8.098260154896707c-.047682063581306.061501210051574-.911366700254803,1.192820655292962-3.028628170106458,2.642485168247731-1.027447530528661.716024052711873-1.981881901123415,1.172079918971576-3.110822049908165,1.695813552942127-1.408976139093284.654474776047209-2.622537530731279,1.25201466868748-3.82076567810509,2.244133250880623-.077651586383581.06383243997152-.142253091935345.112259535788326-.220697777171154.169939451434402-.042274571522285.030762621667236-.083828144077415-.02153383514451-.037684211569285-.075344389801103.058448981195397-.067701800961004,1.821147202930661-1.872650560910188,2.351033361203008-5.698006599019209.184551696762355-1.335097780498472.210699925184599-2.777095671342977.643683825179323-4.063742322718099.012329081933785-.040760473728369-.012281015395274-.084573176318372-.026893260675934-.104592913701708-.002331229896299-.003076262164541-.013867213030608.004614393261363-.016150376390215.007690655391343-1.295106372288501,1.481196200174963-2.373360295177918,3.785340596654351-2.876305126239458,5.22580035637111-.356077345813901,1.019756875139137-.696004315264872,2.044921242299097-1.064362676483142,3.060111790764495-.499940668751151,1.377372352009843-1.152877313728823,2.670171527739512-2.212625597010629,3.718407861169908-.01535727751434.016150376395672-.095388160490984.099978520416698-.095388160490984.099978520416698,0,0-.013074114183837.024610097359982-.017664474131379.063087407756029,0,.003845327690215.005383458787037.011535983112481.008459720949759.010742884252977.151529945011134-.026148228400416.250715366597433-.040760473732007.348410723727284-.061501210017013,1.179746541085478-.243817810058317,2.352571492298011-.526064863865031,3.539191556672449-.723690674829413,1.983468098806043-.330674149650804,3.716124697839405-1.035162219232006,5.314242893646224-2.261821758369479,1.602732589064544-1.230504866829506,2.959412271353358-2.664067070008969,3.844582676643768-4.498288387112552.229950596969502-.476796602604736.446058014220398-.94364341975961.588311106119363-1.465814889324975-.029969522802276-.011535983134308-.077651586379943-.009252819832909-.109928305859285.014612245266107Zm2.313349149690112-9.102659752432373c-.509145421978246,1.62347332538593-1.42971687544923,2.937806336283757-2.772529344701979,4.351372835362781-1.05282669341068,1.086665577233362-3.079314395981783,3.141632738163025-4.015243127032591,4.566687153781459-.026172261714237.040015441434662-.096181259319565.02232693397309-.070033030893683-.049965226937275.450696440795582-1.24050271887063.642938792951099-3.434670742870367.373017815132698-5.135050622420749-.230716656606091-1.450457611814272-.865964794127649-3.033218530059457-1.022878197947648-4.808221800483807-.001538131062262-.00845972096613.0007930988304-.009997852061133-.002283163306856-.018457573009073-.009252819791072-.023047932954796-.048475162406248-.076906554164452-.074623390833949-.07918971750405-.000745032239138.005359425471397-.017664474182311.030762621669055-.059963078954752.168425353644125-.304525921270397,1.031340924826509-.685213364453375,2.323347001729417-.748300772214861,3.523089246860764-.07690655411534,1.447381349624266.196087679893026,3.308495927432887.076906554200832,4.79817588185324-.138455830783641,1.721168682483039-.256098825400841,3.42387979196792-1.045160071240389,4.985106875090423-.003869361014949.007690655420447-.00615252435091.016895408629352-.009228786519088.025355129550007-.016126343085489.041553572553312.027686359506333.118460126757782.027686359506333.118460126757782,0,0,.00692158990023-.001538131096822.009997852037486-.003869360991303.632937990938444-.403735376139593,2.436399636368151-1.467353020425435,3.625374963910872-2.261028659513613,1.484272462366789-.991325483362743,2.797067342145965-2.169533893384141,3.82376984043367-3.651547225663307,1.282056291453046-1.85188579131318,2.026487702567465-4.082199895779922,1.988803491054568-6.353995472858514-.001514097810286-.076906554171728-.006873523314425-.212286122816295-.015357277537987-.229181531452923-.016919441937716-.006921589871126-.086135340690817.042298604801545-.089956635092676.053834587934034Zm-3.825356038112659.97978950020115c-.005407492091763.021533835171795-.023816998476832.030762621690883-.030017589426279.033069818306103-.036891112733429.010766917590445-.054579620173172-.033862917131046-.053810554620213-.043860769203093.057679915609697-.459877160639735.061525243378128-1.027447530470454.029993556143381-1.45966236496497-.123843585570285-1.700427946172567-1.149752985000305-3.108562919855103-2.049559668834263-4.523667550000027-.469129980490834-.738302920124625-1.28200822483268-2.028770865928891-1.628880817526806-2.897838961438538-.003076262137256-.007666622082979-.071499062029034-.050758325769493-.092287864961691-.041505505941132-.009228786555468.152274977253001.022326933969453.652936644953115.05614178457472.976689204733702.252253497688798,2.434116473031281,1.027471563749714,4.817426553713631,1.829606923867686,7.127723474489358.536831781453657,1.546566771206926.805208577725352,2.871690732979914.639862530726532,4.506700041494696-.017664474151388.136124600914627-.022326934029479.150736846211657.034607949375641.192290418743141.00228316333596.001538131096822.005359425500501-.003869360994941.006897556591866-.001538131069537.548343731279601-.79139247578496,1.616599802096971-1.901899084812612,2.274126807025823-2.703265379363074.712947790521866-.867529964411005,4.303690771783295-4.960472744447543,2.534840025722588-10.66309373670174-.106852043731124-.343796330472287-.234564990289073-.641400661816988-.278377692873619-.7060021673351-.027686359506333.000769065546592-.075371576964244.071547128673956-.080775915168488.089956635089948.010790950895171,4.102219633115965-1.973398146899854,5.86340375709915-2.801681735400052,8.669699885729642-.157658436059137.534476518245356-.282247053775791,1.030547825972462-.390685295216826,1.444305087430621Zm-3.092412543464889-12.750337617073455c-.650653481618065-.56218691102822-1.618882965456578-1.562741180883677-2.185684269739795-2.434885538559683-.003869360993122-.00692158990023-.0084837542272-.011535983132489-.01307411417838-.016126343079122-.007690655453189-.007690655426813-.016150376393853-.014612245292483-.024610097334516-.019226638532018-.035377014924961-.022326934054945-.080775915190316-.024610097331788-.093056930569219-.018457573009073-.026148228431339-.004614393259544-.047682063634056-.003076262191826-.046143932537234.003076262159993.035352981642063.170732550270259.599847089290051,1.980343770057516.964408189383903,2.823215570571847.526809896135092,1.216685720360147,1.372757958812144,2.236442595462904,2.165688565673918,3.283933896685085.056886816782935.076113455314044.114566732401727.151481878418053.171525649084288.228412465898145.795934769179439,1.069770168608557,2.068762274082474,3.349256401128514,2.375643458541163,4.519005090149221.00841165440761.03309385159082.079165684246618.063832439976977.082241946389331.050013293528536.111514503572835-.417626622480384.626043384301738-2.03956181679132,1.007475859752958-3.134735181585711.080006849619167-.227619367075022.755246395292488-2.426401784305199.89137099617983-3.377711826181439.385277803134159-2.698650986071698-.504482962107431-6.200230431072669-2.079529191643815-8.11366549901868-.02614822842952.009252819791982-.048475162433533.079237784121688-.043884802513276.094619094943482.029272557241711.08998066840104.050013293532174.159196567153231.076161521936228.249177235526076.03460794937746.117642994596281.067677767712667.23610312132314.095364127209905.356822378112156.410656965988892,1.75810786178954.272994234012003,2.998610580683817.071523095364682,4.493649960574658-.160734698218221,1.192075623047458-.391454360735224,2.371822164136574-.329953150670917,3.573847572629347.010021885329479.200750139712.133072371980234,1.680432242095776.114590765688263,1.736574026615926-.020740736345033.066115603303842-.080727848571769.015357277537987-.087649438479275-.019250671834016-.002331229870833-.010742884281171-.193804516466116-.54985782906806-.386070901929997-1.001299302097323-.079982816390839-.196135746422442-.160734698252782-.381480542008831-.228436499211966-.515273912972589-.632147842046834-1.255114964187669-1.449664512987511-1.90651347810126-2.497900846396078-2.76171436052482Zm-1.73731905888053-10.92536911976822c.505276060961478.49299504555529.898244519519722,1.043645973511957,1.172824951241637,1.689636995302862.434522031082452,1.019011842838154.562162877720766,2.551038468647675.842895833764487,3.709996206798678.171501615810485.703670937436982.276839561749512,1.20202540849823.523733633923257,2.001084506405277.02227886743276.070008997602599-.050758325745846.102309750359382-.087697505017786.035401048230597-.006128491042546-.009252819803805-.012281015400731-.017688507462481-.019202605280952-.026148228434067-.812133212100889-1.100532790297621-1.819609071833838-1.787332352388148-3.255478471628521-2.693291560607577-.85286965252817-.559855681074623-1.502754068651484-1.066645839852754-2.120289665372184-1.904182248123107-.106900110287825-.143815256331436-.216876482800217-.284578283759402-.325314724153941-.42606231013815-.009228786489984-.011535983117028-.074623390839406-.034607949375641-.094595061636937-.026917293953375-.003052228910747.032276719442052.011535983079739.096109159421758.024610097339973.177654140157756.183806664432268.925185846749628.803673491136578,2.637101709411581,1.864983938792648,3.651499159019295.76365804967827.72909816691481,1.621935194292746,1.376651353088164,2.437144668583642,2.05112183323854,1.453581940540971,1.21663765379617,2.514099289373917,2.53022563243303,2.855564389925348,2.964747663548223.005383458777942.006128491041636.015381310815428.016919441907703.015381310815428.016919441907703,0,0,.065370571041058.041505505967507.063832439996986.018433539705256-.000769065549321-.005359425498682-.000769065549321-.012281015368899-.001538131091365-.0176885074643,0-.000745032240957.001538131091365-.000745032240957.001538131091365-.00151409778573-.019995704131361-.21303115505907-.027662326245263-.551444026750687-.027662326245263-.951334075185514.000745032266423-.890577897400362.040736440423643-2.081860421561942.07995878305519-2.901684289096011.01535727753253-.33146724850576.026893260672296-.664472628108342.025355129573654-.996708942166151-.00228316333596-.989811385548819-.113052634640553-1.968038721372977-.529093059407387-2.906322715640272-.67600861127903-1.521187608346736-1.681153241086577-2.730927705575596-3.184700408564822-3.47922847771224-.088442537249648-.043836735863806-.205340499607701-.088442537276933-.280708922709891-.10692414359437-.003076262140894-.000745032241866-.013819146442984.046937031336711.007666622141187.107693209148238.0015381310659.006152524326353.006176557606523.009997852036577.010790950864248.013819146438436Zm-6.227892757291556-2.875512027381774c.870582193299924.773655901733946,1.56891773852476,1.689636995246474,2.222599415737932,2.648637692574994.626788416548152.919826421248217,1.246655243221539,1.852678890112657,2.098779863479649,2.590981810233643.562955976607554.568363468663847,2.201834646117277,1.841936005839671,2.611746579888859,2.159560074597721.006152524360004.005383458811593.012281015346161.011535983133399.017688507437924.013843179752257.013074114256597.005359425493225.034607949406563-.002307196618858.034607949406563-.002307196618858,0,0-.002283163339598-.011535983133399-.003076262169998-.018481606318346-.086159373997361-.47064407824746-.826745457397919-3.923003328569393-2.987819629810474-5.631842929100458-1.161288968078225-1.00439959756568-2.70403444488511-1.619652030979523-4.202198153559948-2.032640226895637-.01533324425327.028431391716367.001538131098641.10305478257942.010790950902447.101516651482598.072316194222367.06303934114203.124588617774862.106900110320566.196880778687046.170732550292087ZM17.04785145445021,49.43935431969021c1.432745071042518-.100723552675845,2.818625210620667-.411450064850214,4.201405054697716-.782115622680067.899037618364673-.239972482353551,2.651737988068817-.620659925507425,3.258530700541996-.759067689723452.00999785201202-.002331229921765.025355129548188-.006152524358185.035352981616597-.008459720940664.005407492086306-.000793098857685.007738721978967-.00461439328501.006200590913068-.009997852039305-.004662459876272-.013074114231131-.016198442981477-.040760473732007-.039270409250094-.070778063156467-.00841165435213-.009997852064771-.043812702556352-.023071966264979-.062294308847413-.027662326216159-.781346557164397-.202288270782446-2.940882598471944-.832897981730639-4.442891634858825-2.26720521714924-.961331927193896-.892885093995574-1.86570493772706-1.846550399101034-2.826291832687275-2.739411459780968-.774449000588902-.719076281593516-2.480236372261061-2.171072024448222-2.597879366856432-2.210294367083407-.016198442981477.013819146441165-.022326934002194.081520947433091-.016943475190601.088442537306037.249922267766124.333750411817164,1.149007952672946,2.375643458533887,1.698096716215332,3.420803529810655.792930606889058,1.508882559664926,1.8457573002961,2.710956034721676,3.395400333645739,3.278526404590593.008483754219014.003076262160903.020019737383336.011535983128852.026148228427701.017688507457933.035401048202402.037684211538362-.014588211988666.083828144073777-.123795518918087.066163669893285-.009252819832-.001586197682627-.018457573037267-.00312432877945-.027686359536347-.004662459874453-1.73808812439438-.282247053806714-3.440054201670137-.358360509153499-5.203497455647266-.450648374169759-1.334304681663525-.069984964273317-2.71093200147061-.158427501579354-3.988373899635008-.596794860404771-.849817423672903-.291499873634166-1.50969969183916-.552213092301827-2.534070960143254-1.338943108241438-.009997852042034-.006152524323625-.067677767655368-.023071966241332-.117691061216647.003076262193645-.003076262133618.0015381310659,0,.009204753185259.003124328784907.01384317974771,1.154343344920562,1.7303974689803,3.176240687535028,3.174702556443663,4.81663345483139,3.786109662140007,1.442742923084552.537552780415353,2.987819629787737.700618708558977,4.539793893112801.591387368320284Zm-1.347402829182101-3.55767316292804c.097647290455825.020740736285006.196880778689774.035352981616597.34838669041801.061501210017013.003076262141803.000793098859504.008483754231747-.006897556562762.008483754231747-.011535983110662-.00466245982534-.037684211538362-.017736574025548-.062294308898345-.017736574025548-.062294308898345,0,0-.079958783027905-.083828144021027-.09610915941812-.099978520416698-1.059027284332842-1.04898136567499-1.711170830481933-2.341035509160065-2.211832498158401-3.718407861169908-.368358361223727-1.015190548465398-.709078429526926-2.040354915625358-1.064386709827886-3.060111790764495-.502992897624608-1.440459759716759-1.581174720584386-3.743811057336643-2.876305126208536-5.22580035637111-.002331229954507-.00307626212998-.013867213086996-.010766917555884-.016150376393853-.007690655391343-.014588211988666.020019737383336-.039198309326821.063832439973339-.02691729397975.103799814845843.4329839000211,1.287439750230988.459108095143165,2.729437641075492.643707858489506,4.064535421573964.529886158266891,3.825356038109021,2.292560346705613,5.630304798058205,2.351033361198461,5.698006599019209.046143932509949.053810554656593.00382129440186.106107011468339-.037684211565647.075344389801103-.077675619689217-.057679915646077-.143046190731184-.105361979220106-.220745843763325-.169939451434402-1.198156047499651-.992118582193143-2.411789539001802-1.589658474833413-3.820693578235478-2.244133250880623-1.128988215346908-.523733633970551-2.083398552662402-.979789500230254-3.110870116490332-1.695813552942127-2.1172134032131-1.449664512954769-2.980898039942986-2.580983958196157-3.029325135759791-2.642485168247731-.031555720517645-.023865065099017-.079237784095312-.026148228400416-.109231340211409-.014612245266107.14304619075665.522171469565365.358408575768408.989018286720238.588359172712444,1.465814889324975.885170405284043,1.834221317103584,2.241802021017065,3.26701445476283,3.844534610051596,4.498288387112552,1.598118195836832,1.226659539137472,3.330822861432353,1.931147608718675,5.314242893681694,2.261821758369479,1.186668130933867.197625810964382,2.359493082141853.480665963625142,3.539239623254616.723690674829413Zm-9.782489658086888-7.856773574761974c1.18895129426619.793675639088178,2.992434023047281,1.85729328337402,3.625350930637978,2.261028659513613.003076262162722.00233122989448.009997852042034.003869360991303.009997852042034.003869360991303,0,0,.043836735865625-.07690655420447.027686359470863-.118460126757782-.003076262135437-.008459720920655-.00538345878158-.01766447412956-.009252819774701-.025355129550007-.789061245861376-1.561227083122503-.90670424048767-3.263938192607384-1.045112004676412-4.985106875090423-.119229192283456-1.489679954420353.153789075034183-3.350794532228974.076906554197194-4.79817588185324-.063832439996077-1.199742245131347-.444519883180874-2.491748322034255-.748324805441371-3.523089246860764-.042274571516828-.13766273197507-.05921804674108-.163065928172728-.060011145593307-.168425353644125-.026124195127522.002283163339598-.06534653775816.056141784549254-.074575324252692.07918971750405-.003052228853448.00845972094794-.000769065542954.009997852042943-.002307196640686.018457573009073-.156889370478893,1.775003270424349-.792930606859045,3.357764188669535-1.022833137215457,4.808221800483807-.269966038485109,1.700379879550383-.077699653050331,3.894547903550119.372972754425973,5.135050622420749.026124195125703.072292160910365-.044629834696025.089980668371936-.069984964301511.049965226937275-.935976797611147-1.425054415618433-2.962416433590988-3.480021576548097-4.015291193618395-4.566687153781459-1.342764402614193-1.413566499079025-2.263359889410822-2.727899509976851-2.772481278054329-4.351372835362781-.003869361020406-.011535983132489-.073037193185883-.06075617780516-.089235636167359-.053834587934034-.009204753205267.016895408636628-.01461224529703.152274977281195-.016150376393853.229181531452923-.037684211503802,2.271795577078592.706819299473864,4.502109681545335,1.988827524337466,6.353995472858514,1.026678464982069,1.482013332279166,2.339497378066881,2.660221742300564,3.823817907018565,3.651547225663307Zm-.624505253236748-5.332700466689857c.001538131087727-.002331229925403.004590359946633.00307626216636.006921589895683.002331229925403.056910850039458-.042346671387349.052296456810836-.05695891668438.03460794937655-.193083517599007-.165325058176677-1.63426427624654.103053139407166-2.96013327028777.63986253074836-4.506700041494696.802135360070679-2.310296920775727,1.577329392873253-4.693607001458076,1.829606923902247-7.126930375634402.033838883829048-.324545658635543.065370571011044-.825207326335658.056117751213606-.977482303588658-.020740736288644-.009252819828362-.089187569519709.033838883858152-.09226383168243.042298604798816-.346848559351201.868274996651962-1.15972680372488,2.159536041313913-1.628856784188429,2.897045862580853-.899830717173245,1.415104630144924-1.926533215430936,2.82323960382746-2.049583702143536,4.523667550000027-.031531687212919.432214834494516-.027662326192512.999785204325235.029969522831379,1.45966236496497.000793098834038.009997852072047-.016895408603887.054627686793538-.05381055462567.043860769203093-.006154132682241-.00230719661522-.024610097304503-.011535983134308-.029969522804095-.033069818306103-.108438241437398-.413757261458159-.233026859188612-.909828569185265-.391478394078149-1.444305087430621-.827490489670708-2.806296128630493-2.811703620745902-4.567480252613677-2.80096073646564-8.669699885729642-.005335392190318-.018409506415992-.053041489053612-.089187569543355-.080703815268862-.089956635089948-.043860769173989.064601505518112-.171525649118848.362205836862813-.27842575943032.7060021673351-1.768874779380894,5.702620992254197,1.821916268476343,9.795563772290734,2.534094993448889,10.66309373670174.658272037169809.801366294550462,1.726504074682452,1.911872903578114,2.274871839270418,2.703265379363074Zm-2.570193007338275-11.335257020238714c.382970606550771,1.095918397037167.896706388450184,2.717853591348103,1.0082208920021,3.136225246071263.003052228852539.013074114205665.073830292032653-.017664474180492.082288410831097-.050758325771312.306858753292545-1.169748689020707,1.579662224943604-3.449234921540665,2.375645060679744-4.519005090149221.056886816813858-.076930587480092.114590765715548-.152299010584102.17152564911612-.228412465898145.792882540267783-1.04749130122218,1.638878669537917-2.067248176324938,2.165688565645723-3.283933896685085.364489000225149-.842871800514331.929007141152397-2.652483020301588.965153221644869-2.823215570571847.000769065549321-.006152524351819-.020764769648849-.007690655419538-.046912998080188-.00386936101404-.012329081960161-.005359425468669-.057679915643348-.003076262191826-.093032897229932.019250671863119-.008483754279041.004614393239535-.016943475225162.011535983105205-.02461009736453.019226638532018-.004662459850806.003845327706586-.009252819801986.009204753178892-.013074114205665.016126343079122-.566825337592491.872144357676007-1.535078854662061,1.872698627531463-2.185708303020874,2.434885538559683-1.048212300098385.85520088242356-1.865753004345606,1.506599396337151-2.497924879678976,2.76171436052482-.067701800961004.133793370963758-.148429649534592.319138166550147-.228436499237432.514480814144008-.192218318838968.452234571857844-.383763705317506.991349516644732-.386046868623453,1.002092400925903-.006921589905687.034607949372003-.066884668855892.085366275137858-.088418504054061.019250671834016-.017736574023729-.05614178452015.105313912631573-1.535823886903927.116104863521286-1.736574026615926.059963078955661-1.202025408492773-.169987518013841-2.381771949581889-.330722216235699-3.573847572629347-.201471138675515-1.495039379890841-.33913387062421-2.735542098785118.070754029845375-4.49439499284108.027686359501786-.119181125688556.061549276608275-.238434351249452.096157226036667-.356077345845733.026148228404963-.089980668372846.046912998001972-.159196567125036.076113455313134-.249177235526076.004614393265001-.015381310821795-.017664474172307-.0853662751515-.043814307212415-.094619094943482-1.575046189741443,1.913435067946011-2.464877490043364,5.415014512946982-2.079527587012308,8.11366549901868.136124600887342.951310041876241.81134011325048,3.150092459106418.890577897319417,3.376966793938664Zm2.271793945164063-5.939493179130295c0,.399890048434827-.007664990149351.738302920126443-.027684727501764.951334075185514,0,.00151409778573.001538131034977.000769065544773.001538131034977.00151409778573-.000793098855866.005407492095401-.000793098855866.012329081965618-.001538131034977.0176885074643-.002331229958145.02307196626225.063832439940597-.018433539705256.063832439940597-.018433539705256,0,0,.009997852037486-.010790950866067.01540534412743-.016919441907703.341417033931066-.434522031115193,1.401237417147058-1.748110009752054,2.855516323303164-2.964747663548223.815209474292715-.674470480150376,1.673486618910829-1.32202366632373,2.437168701892915-2.05112183323854,1.061310447629694-1.014397449607713,1.681177274334004-2.726313312269667,1.864983938793557-3.651499159019295.013074114261144-.081544980735998.027686359531799-.145377420715704.024610097333607-.177654140157756-.019995704074972-.007690655422266-.085366275142405.015381310836347-.094571028322207.026917293953375-.108438241355543.141484026378748-.21843864717448.282247053806714-.324593725219529.42606231013815-.618328695580203.837536408270353-1.26818907840061,1.344326567048483-2.121058730926961,1.904182248123107-1.435869399771036.905959208219429-2.443345259523994,1.592758770309956-3.255478471604874,2.693291560607577-.006128491048003.008459720971587-.013074114227493.016895408630262-.019202605244573.026148228434067-.036915146016327.066908702128785-.109976372506935.034607949372003-.087649438479275-.035401048230597.246846005607949-.799059097907048.352207984824418-1.297413568968295.52368556732381-2.001084506405277.280708922770827-1.158957738151003.408373802682036-2.690984363960524.842943900385762-3.709996206798678.27450833182229-.645991021790906.667524856971795-1.196641949747573,1.172031852407599-1.689636995302862.00538345878158-.00382129440186.009997852037486-.007666622112083.012305048630878-.013819146438436.020764769631569-.060756177811527.009997852035667-.108438241390104.006945623186766-.106900110319657-.075416489669806.017688507488856-.1930594842961.062294308901983-.280708922718986.106131044765789-1.503547167478246.748300772136645-2.508715830595065,1.958040869365504-3.184724441836806,3.47922847771224-.416088491391747.938283994267294-.526809896081431,1.916511330091453-.529117092723027,2.906322715640272-.000745032266423.332236314057809.009997852037486.665241693660391.025379162882928.996708942166151.039222342606081.820568899776845.079189717476766,2.011106391695648.079981184368989,2.901684289096011Zm3.113202978413938-5.734152679464387s.021485768528692.007666622112083.034559882758913.002307196618858c.005407492065387-.002307196618858.011535983107933-.009252819801077.017736574051924-.013843179752257.409887900468675-.31762406875805,2.047973471151636-1.591196605933874,2.611722546555029-2.159560074597721.852100587004315-.739047952335568,1.47201548024259-1.671155388985426,2.098803896789832-2.590981810233643.652936644979491-.95900069732852,1.351969155876759-1.874981790841048,2.222575382455943-2.648637692574994.071523095392877-.06383243997152.124588617746667-.106900110316928.196880778686136-.17152564911521.008459720944302.002331229919946.026148228440434-.072292160943107.010742884311185-.100723552659474-1.498139675395578.412988195916114-3.040861118915018,1.028240629329957-4.202126053680331,2.032640226895637-2.161098205695453,1.708839600531064-2.901708322406193,5.161198850852998-2.987819629786827,5.631842929100458-.000793098861323.006945623184947-.003076262141803.018481606318346-.003076262141803.018481606318346Zm24.346259789338546,18.81211221736703c.169218452527275-.254560694309475-.252974496655952-.415295392585904-.362950869106498.026893260641373-.103102849225252.411474098184044.193011417695743.226874334812237.362950869106498-.026893260641373Zm4.607495694071986-10.653095884696086c-.163810960413684-.085366275115121-.837536408298547.735971690202859-.729843199127572.869020028925661.048427095842271.053089555659426.789061245839548-.829797686259553.729843199127572-.869020028925661Zm.144584321853472-.145353387368232c.101516651509883.053041489101815.548343731310524-.189983222096998.465260619474066-.255353793194445-.082290012984231-.066115603277467-.607513711403953-.30914031447719-.618304662271839-.160734698218221-.015357277537987.241510613444007.050758325769493.363022969027952.153044042797774.416088491412665Zm8.11520363011914,7.11385626140509c-.211493023991352.009228786511812-.440698588725354.315292838837195-.376097083202694.319162199855782.1522749772721.00766662208116.268379840776106.116897962332587.390685295187723.089956635063572.224567138226121-.04996522690999.196880778667037-.417578555861837-.014588211985028-.409118834919354Zm-2.94093066503774-7.659916829377835c-.182268533391834.004638426566089-.228436499215604.20305733632631-.053089555718543.293038004700065.078468718598742.040760473730188.328390986347586.003821294434601.442981752110427-.068446833199232.120767323318432-.076137488624227.261506317496242-.170732550256616.235358089059446-.355308280295503-.01540534412743-.112283569092142-.27686359503241-.429138572313605-.139993961875007-.55065092789755.147660584016194-.132303306512767.296859299107382.07303719315496.44144362098632.016895408608434.176140042345651-.068422799921791.159989665955436-.169170385885991.165397158069027-.319138166519224.00687352323439-.20762366299823-.076161521958056-.480665963626961-.316855003238743-.480665963626961-.17921630451383,0-.490687848945527.479872864769277-.504531028693236.509121388648055-.023841031787015.05229645685813-.073830292009006.227643400356101.003052228854358.406066606064996.106924143627111.248408169976756.065370571097446.539884010329843-.273763299554048.54908876351692Zm3.986090736303595.03306981827609c-.005407492059021.110769471369167.314523773260589.88137314422147.346824526048295,1.091328037119638.032324786065146.20995489289362.098440389374446.839050506084277.267634808566072.774449000562527.106900110287825-.041553572562407.096899563162879-.426855408998563.073830291956256-.576054124115217-.06844683320378-.437574259967732-.156889370515273-.81593047320257-.318393134279177-1.307387387716517-.085366275146953-.261506317467138-.456055866263341-1.115145035540081-.579106352946837-1.085175512703245-.109207306904864.026196294991678.183806664521398.621428991017638.226874334812237.815233507551966.028431391741833.126126748845309-.011535983137946.176091975756208-.017664474156845.287606479300848Zm-2.106470518925562-10.277022834738091c.196880778719787.074623390871238.196087679836637-.292989938110622-.138455830780003-.564494107648898-.332260347369811-.270711070695143-.775242099429306-.139176829761709-.655267874935817-.005335392183042.108462274718477.119926157902228.619121794463354.502944831032437.79372370571582.56982949983194Zm-9.069638000748455-2.604800956678446c-.395299688476371-.255353793165341-.064577472179735-.607561778017043-.380639376588078-.844409931555674-.221490876033386-.166142190335449-.842150801532625-.00158619771355-.995939876596822.195294581007147-.266889776299649.345334461537277.344541362711425.230743695826277.566032238743901.32918408520618.247639104455629.109183273590133.77906339382298.566032238739353.873634422198847.473744373686714.093825996060332-.093056930538296-.019226638583859-.113052634615087-.063087407757848-.153813108344366Zm2.402584785824729-1.208971031656802c-.532217388219578-.243024711231556-2.536378156810315-.232281826923099-2.484081699945818.289144610407675.04306767034177.44531298198126,1.157443640366182.026941327259919,1.445843218527443.002331229924494.289168643710582-.025355129580021,1.508161560734152-.049965226914537,1.038238481418375-.291475840332168Zm-5.864148789331011,23.319581324411047c-.026148228434977-.099185421608126-.199933007579602-.083035045219731-.156865337226918.00848375428177.043091703627397.09149476613311-.052296456866316.184575729977951.036891112678859.299166495715326.116921995637313.125333650023094.369151460075955.109976372485107.496071307755301.006152524329082.073085259796244-.079237784095312.026917293976112-.229181531451104-.028479458332185-.25838198873862-.096109159419939-.047706096880574-.321469396494649.043812702590003-.347617624875056-.055420785587557Zm-.772117770666227-3.986835768570927c.165349091506869,0,.159196567146864-.123795518925363.255305726570441-.119181125663999.096902258276714.00384532771568.017736574055562.12538171660708.185344795560013.12538171660708.166142190308165,0,.340720068334122-.428393540071738-.193804516529781-.428393540071738-.435267063323408,0-.377563114426266.416064458081564-.246846005600673.422192949128657Zm.693697118676937.442981752056767c-.332212280714884-.085366275146043-.264582579684429.103847881433467-.468336881627692.126126748844399-.337667839430651.036939179330147-.037684211569285-.249177235526986-.20382640187654-.380687443181159-.073085259747131-.057655882332256-.271504169534637.23148872809179-.286092381523304.412219130392259-.009228786544554.086904406240137-.011535983137946.381480542011559.131510207653264.390709328528828.143046190735731.009204753208905.895168257322439.09536412718262,1.145931690512043.152250943971012.286837413791545.066163669896923-.011535983135218-.621380924458208-.319186233137771-.700618708555339Zm-3.703050583665572,3.992243260690884c.102285717080122,0,.176116009118232-.363022969035228.113028601356746-.541422141439398-.063808406660428-.178423205676154-.392968458521864-.044629834743318-.422168915813018.038453277065855-.028479458353104.083804110763595.206085531901408.502968864373543.309140314456272.502968864373543Zm-4.853596667388956-.036146080476101c.014660311898297-.156144338323429.001586197657161-.612945236818632-.107645142552428-.701363740794477-.109183273677445-.08769750506508-.094595061689688.077627553104321-.17301571362259.068422799897235-.060756177811527-.006921589876583-.055420785590286-.219207712700154-.132303306487302-.218414613864297-.076906554193556,0,.026148228434977.362998935721407.108438241418298.573698860876902.082290012926933.211493023964067.285323315973983.556827485530448.304525921244021.277656693884637Zm-.116873929073336-1.10899251126466c.025379162883837-.053834587908568.191497319918199-.814464442033568.166094123720541-1.105147183503504-.026148228431339-.289961742566447-.18068233574013-.563725042149599-.21990467836622-.543729338072808-.052344523401189.026917293982478.023816998529583.200726106408183.033021751740307.482204094716508.013867213030608.42067885133838-.184551696760536.770579639547577-.184551696760536.909035470356685-.000793098855866.130717108801036.124588617788504.426831375698384.205340499665908.25763695650312Zm-12.959499411141223-2.689446232894625c0-6.155576563071918,2.394052964932598-11.938949437206247,6.74083351121044-16.285731912617848C21.104672187317192,2.394101031524769,26.888838160313753,0,33.044414723382943,0c6.155600596355725,0,11.938973470487326,2.394101031524769,16.285755945898927,6.740835440344199,4.346734408853081,4.346782475411601,6.740835440370574,10.13015534954593,6.740835440370574,16.285731912617848,0,6.155600596381191-2.394101031517494,11.939766569345011-6.740835440370574,16.285755945926212-4.346782475411601,4.346758442132341-10.130155349543202,6.740835440401497-16.285755945898927,6.740835440401497-6.155576563069189,0-11.939742536065751-2.394076998269156-16.285733841777983-6.740835440401497-4.346780546277841-4.345989376581201-6.74083351121044-10.130155349545021-6.74083351121044-16.285755945926212Zm7.093043425196811,15.23826464474223l2.501770207384652-2.501770207385562c-.49220194676127-.519095207377177-.954386304041691-1.066693906443106-1.384293941890974-1.638854636225005-.193828549839054-.076906554177185-.390709328537923-.184575730012511-.526040830593047-.352232018138238-.213800220632038-.266889776296011-.326059756442191-.657551038215388-.427624474544245-.657551038215388-.102261683722645.000769065554778-.008411654357587.248384136704772-.236103121299493.281477988290135-.309933413363979.045350833655903-.747507673306245-.725228805895313-.918240223568318-1.005937728659774-.201495171949318-.330698182966444-.532217388219578-.33377444512189-.694490217539169-.6437318917433-.046888964770915-.089187569572459-.159196567176878-.362974902413043-.262996381992707-.200702073123466-.171501615810485.275325463961053-.759836755301876-.599895155875856-.909804535902367-.539884010304377-.154606207207507.059963078951114-.01848160629379.242231612344767-.105386012530289.319138166549237-.168401320364865.149991813910674-.663679529259753-.670601119139974-.849024324819766-.586772975089843-.173808812450261.079213750790586-.213800220632038.184599763317237-.223822105952422.402221278329307-.009204753207086.226105269317486.270711070672405.80751881886863.172270681356167.852893685862-.139921862002666.063832439942416-.855945914717267-1.7595979262951-.699825609699474-1.842681038133378.0876494384529-.046912998031985.073830292009006.083083111838278.17301571356893.023841031821576.102309750367567-.061525243359938-.071499062084513-.187651992207975-.118388026808134-.385325869752705-.049220194699956-.206854597419806-.228436499211966-.211493023962248-.243817810061955-.439112391042727-.013819146435708-.226898368111506.309909380055615-.150736846178916.30611211890664-.261506317492604-.003869360991303-.110721404742435.02535512958184-.236848153590472.1168498957677-.316061904348317.106924143596189-.092311898326443.356870444702508.004590359925714.410705032603801-.315340905448465.046143932511768-.272994234041107.183806664494114-.019947637489167.21228612282448.1830616322477.033069818330659.235310022495469.634455038660235.29452806918016.663679529284309.133048338719163.017664474116827-.10228571702828-.243048744512635-.098440389347161-.243048744512635-.18919012329934-.0007450322355-.173808812418429.330722216243885-.007690655391343.556827485554095.01228101540255.098440389326242.008459720971587.276118562767806-.150736846180735.500661667707391-.034583916094562.244586875545792.126871781088994.395299688476371.188421057722735.557572517738663.214569286152255-.544498403563921-1.661950635745598-.860608374510775-3.426956054130642-.908242371526285-5.257356076863289h-3.523906378998618c.120767323350265,5.544217523931366,2.27338177476031,10.745407782967959,6.10330413954307,14.746062697986417Zm14.536107805082793-20.4133066753393c.024610097334516.037684211567466-.23069562920864.269966038457824-.361436771374429.495326275505249.407580703885287-.153068076133422.831359850695662-.251508465447841,1.266650947325616-.293807070249386v-3.533087098921897c-1.97959873781565.113821700186236-3.779957137836391.90595920821761-5.17196576841161,2.147206959348296l2.49407955193692,2.494103585267112c.286861447118099-.235334055803833.598308958215057-.439136424348362.933645567750318-.607585811299032.086904406203757-.043043637064329.174553844655748-.08303504522155.263044448579421-.120719256788107.170732550262983-.298397430201476.543705304709874-.630657777506713.575982024193763-.581437582862236Zm-8.708105096252439,13.172578632816112c.000769065575696.069984964324249-.002283163305947.13920086307553-.016943475163316.20457143411295.18306163219313.22456713819156.369944558849966.445288948703819.566825337540649.65752700493249l2.498693945217383-2.498669911936304c-1.175901213344332-1.30356609329101-1.995749114184036-2.933215976338033-2.307965690823039-4.735160573995017-.074599357587431.02001973735787-.141508059694388.010021885351307-.183061632254976-.062294308874698-.050734292461129-.087649438502922.023095999528778-.176861041334632.130789208697024-.26609667746925-.036146080466096-.265303578615203-.062294308905621-.533707452701492-.076163622636159-.805211622233401h-1.663486666169774c.016943475220614.264582579655325.123050486708053.646015055082898-.051551424596255.779063393802062-.143791223004882.109231340238694-.347593591594887-.001538131067718-.477589701407851.016150376397491-.319138166541961.043067670318123-.392223426344572.428369506780655-.307602183415838.689875824273258.055372719003572.176116009044563.132255239896949.312240609955552.101516651510792.502199798771471-.028479458382208.17839917240417-.125381716627089.317600035448777.156865337177805.466798750561793.258430055355348.135379568650023.676801710104883.666010759154233.642193760671034.757553591938631-.044605801381294.117667027898278-.301473692336003-.109976372448727-.317600035451505.103054782604886-.009997852038396.130717108795579.379149312113441-.036939179295587.35682237814035.406042572758452-.013074114252049.257636956501301.051527391288801.539884010306196.126126748849856.716769084920088.153789075011446.368406427807713.330698182935521.611431139008346.315316872085532,1.026726531574241-.012281015338885.344541362734162-.073037193151322.719845347108276.077699653028503,1.044391005712896.155325127782817.333774445150993.427576407907509.603692417031198.429114538999784.996708942147961Zm-2.077246028301488-5.944107572362554c-.205364532946987-.235334055803833.136124600882795-.904421077126244.186858893343015-1.035931284770413.054627686757158-.13920086305734.364561100094761-.318393134288272.457593997381991-.525295798330262h-1.480427134653837c.028431391772756.77447303385452.126126748854404,1.535847920216838.286068348270419,2.280279331354905.355332313609324.12999610983934,1.038286547956886-.159941599391459.549905895658412-.719052248254229Zm-.929055207771853,9.520262341608031c-.010742884281171.006128491073468-.023023899680993.010742884305728-.035352981615688.01538131084817.134586469788701.153020009514876.271504169528271.303756855724714.411450064819292.45141743971908l.282247053839455-.282247053806714c-.264582579663511-.166887222580044-.508352323103281-.272249201774684-.658344137043059-.184551696760536Zm6.054877043668057-17.93463246747433l-2.491772355313515-2.491748322062449c-2.054174062093807,2.213370629220663-3.349280434465982,5.139640982395576-3.469278692267835,8.360487471341003h1.745802813135015c.292244905875123-.470644078273835.193059484287005-.829052654017687.2907067747783-1.102839986907384.09382599611763-.260713218660385.247639104486552-.499868568847887.392223426317287-.734433559076024.128433945516917-.206878630734536.274580431718277-.439905489892226.543753371329331-.441443620991777.56908446765101-.003076262156355.710568494027029-.300728660148707,1.07130829966718-.466053718298099.360667705826927-.165349091501412.999016138815932-.263044448613073.92669994456719-.451465506337627-.049220194675399-.126871781079899-1.331997485029206.37068959114913-1.359683844556457.273787332869688-.04847516240352-.169939451436221.404504441665267-.153813108352551.595256729307039-.326083789704171.037660178287297-.035352981617507.074575324303623-.056886816821134.109952339228585-.074575324245416.412195097058429-.936721829888484.96827755034883-1.795792073355187,1.645031193807881-2.545630976587745Zm-.449134276387667,2.331830755948431c.033838883832686-.014612245271564.067701800994655-.030762621661779.103054782637628-.050758325740389.427576407903871-.24456284227017.989787352240455-.197673877550187,1.228966735760878-.093825996114901.30839528224169.13458646984509.702901871863105.477589701432407.882118176372387.614483367891808.077675619746515.05919401340725.11456673243265-.050782359047844.477589701461511-.105361979214649.151505911731874-.022326934033117.186137894408603.129972076554623.40222127832476.160734698218221.086902174961324.012281015369808.158403468329197.016150376393853.223822105986983.011535983135218l-2.171889156589714-2.17107202445095c-.442188653200901.496047274466946-.827466456362345,1.045160071271312-1.145883623954433,1.634264276275644Zm-2.44565245611102,2.683245641977919c-.276070496223838-.028431391740014-.556034386703686.086159373970077-.704440002985393.326107823011625-.10382384812965.166094123716903-.133048338749177.352232018136419-.097695357111661.527554928340578h1.260520355578592c.012331182664639-.238410317940179.033816951223343-.474513439263319.063089508434132-.707540298429194-.162320895909033-.084573176281992-.355332313608415-.12920301100894-.52147450391567-.146122452923009Zm3.592329178891305,7.010056446591989l2.495617683112869-2.496410781914165c-.20380236859819-.247639104461996-.382225574302538-.516018945265387-.536062715931621-.799804130139819,0,0-.000745032265513.000745032237319-.000745032265513.001538131062262-.039222342610628.045350833686825-.072294388468435.091494766191317-.092287864990794.135331502060581-.051503358036825.11151450354555.015381310814519.482997193521442-.139200863050064.642193760671944-.199212008641553.20608553189777-.734433559105128-.453748669644483-.903652011632403-.5083523231242-.229950596974959-.072292160914003-.339926969424596.180730402324116-.327597887489901.253767595482714.030738588386157.189959188839566-.007714688704255.266120710777614-.090773767228711.283040152686226-.08308311178007.016150376397491-.501454766533243-.268427907392834-.314523773289693-.339926969450971.217621515034807-.082290012980593-.056934883347822-.269966038489656-.150784912771087-.343003231635521-.161479730491919-.124588617753034-.413709194872354-.00845972094794-.532169321629226-.173808812431162-.126895814344607-.177678173471577-.36607519786503-.30531902007715-.439905489899502-.326852855276229-.050013293499433-.014612245271564-.295321168006012-.118460126735954-.456055866232418-.03383888382632-.126126748900788.067653734377018-.262251349730832-.070008997607147-.356870444700689-.162272829315043-.052272423550676-.050758325769493-.104568880369698-.109976372485107-.159941599365084-.167656288125727.297604331347429,1.53044042815236,1.00593772863067,2.915527468900109,2.004953867363838,4.03605596327543Zm2.497900846388802-4.310636394970061c.000793098861323-.021533835179071.002331229956326-.043812702588184.004662459851716-.066139636583102.000745032238228-.006152524354547.000745032238228-.012281015380722.001538131096822-.017688507465209.001514097813015-.016895408627533.003797261118052-.033814850545241.005335392215784-.050758325767674.00153813110046-.006921589876583.002331229927222-.014588211988666.003076262131799-.021533835173614.001586197692632-.010742884278443.003124328789454-.021533835177252.004662459851716-.032276719421134.001538131096822-.006152524356366.00228316333596-.011535983132489.003052228885281-.017688507492494.000745032266423-.006152524327263.002283163305037-.013074114203846.003076262167269-.019202605220926.003869361019497-.0230959995788.008459720940664-.045422933580994.013819146435708-.066956768780074v-.0015381310659c.004662459880819-.020740736319567.009997852041124-.041505505912937.016198442984205-.06075617780516.001514097783911-.006921589851117.003797261090767-.01228101534798.00533539218668-.018409506395983.004662459853535-.013867213030608.008483754279951-.026941327232635.013867213036065-.040015441460127.002283163363245-.006152524327263.00461439328501-.012329081966527.00692158990114-.018457572983607.005359425499591-.012305048709095.01002188534585-.023841031816119.016150376392943-.034631982711289.002283163306856-.004590359947542.004614393234078-.009997852037486.006945623187676-.014588211990485.008411654350311-.014612245295211.016871375294613-.028479458358561.026124195092962-.039967374872504.032300752756782-.040808540290527.075368423073996-.048475162431714.126126748844399-.041553572555131.087649438482913.012281015369808.197625810938916.069215898776747.304549954556933.074575324269972.076882520866093.003869360994941.152250943971012-.018433539724356.217669581599694-.103054782601248.029969522835017-.038429243781138.057631849058453-.082290012978774.077651586445427-.12533365001218.020788802928109-.043067670352684.033862917128317-.085366275150591.034607949368365-.119974224531688,0-.016919441908612-.00233122994905-.032324786036042-.008459720940664-.045398900261716-.018481606321984-.037684211543819-.069239932087839-.049965226913628-.169218452501809-.015357277536168-.020740736345033.00694562317949-.040736440423643.013819146470269-.06150121004157.019226638525652-.041529539230396.011535983165231-.082292270398284.019202605282771-.121512355620325.020740736374137-.019995704074972.000793098824943-.038477310366943,0-.056886816762017-.003076262191826-.055420785643037-.00766662211754-.103847881456204-.032276719457514-.140787060759976-.082290012980593-.011535983103386-.016895408603887-.022278867410023-.036146080445178-.031483620595282-.059218046710157-.011535983130671-.029224490568595-.025403196166735-.054579620174991-.041553572551493-.076906554179004-.062294308909259-.090725700638359-.153813108378927-.136124600880066-.249177235560637-.193011417672096-.047682063581306-.028479458358561-.096157226007563-.058448981186302-.143046190786663-.099233488170285-.023071966216776-.019971670795712-.046143932510859-.042298604825191-.06767776765264-.067653734375199-.017690744986794-.019995704104076-.034631982659448-.039222342657013-.05229645683994-.057679915669723-.00694562317949-.00692158988204-.013819146444803-.013074114209303-.020764769655216-.019226638534747-.011535983076101-.011535983101567-.022326933972181-.022326934002194-.034607949345627-.033069818302465-.00846195597569-.007714688703345-.017664474152298-.015381310820885-.026148228431339-.022326934002194-.009997852037486-.008411654356678-.01999570407952-.016150376366568-.029993556142472-.023816998482289-.010742884279352-.008459720968858-.020764769623383-.01540534412743-.031555720523102-.023071966266798-.008459720944302-.0054074921145-.01766447412956-.011535983132489-.026869227334828-.016943475221524-.011560016413569-.007666622116631-.023095999572433-.014612245268836-.035425081512585-.02074073631502-.007666622139368-.003869361023135-.015333244227804-.00769065545137-.02307196626316-.011535983132489-.013074114204755-.006152524355457-.026893260648649-.012329081970165-.039943341593244-.017688507462481-.006200590948538-.002307196647052-.012329081935604-.003845327685667-.018481606291061-.006176557636536-.015405344128339-.004614393265001-.030738588356144-.00997381873276-.046143932485393-.01307411423295-.003076262162722-.000745032210034-.006152524356366-.000745032210034-.009228786514541-.001538131067718-.117691061186633-.022278867410932-.240741547894686.008459720970677-.359922673552319.12384358550662-.001540349944662.000745032274608-.003076262140894.002331229954507-.004614393243173.003845327744784-.018457572981788.018433539729813-.03768421156019.039222342633366-.056141784541978.06229430887106-.002283163363245.002283163332322-.003869360994941.004614393235897-.006152524356366.006897556568219-.018457572979969.023865065097198-.036939179273759.048475162437171-.055348685717945.076954620792094-.000793098834947.002283163306856-.002331229897209.00459035995118-.004662459824431.006873523261675-.018433539700709.029224490564957-.036891112738886.060756177803341-.055348685717036.094619094941663-.038429243779319.070778063154648-.075368423079453.149943747379439-.110745438003505.243793776751772-.286092381517847.749045804393973-.617559630054529.519864272941049-.56295597659846.786778082527235.006152524325444.031483620588915.08690440623468.053017455793452.203826401868355.062270275589981.046888964780919.003821294405498.099978520418517.006152524330901.155327206131005.006152524330901.056141784551983,0,.11612889681237-.001538131071356.176140042410225-.00538345878158.060756177806979-.00307626216636.122255173911071-.008483754250847.182220466748731-.016150376368387.030017589451745-.00386936104951.059218046767455-.00845972096613.087695287453244-.01307411423295.017690725128887-.00233122994905.033817068162534-.005407492084487.050760543391334-.008459720940664.016150376386577-.003076262191826.032276719471156-.006152524347272.048475162425348-.009997852062952.013819146471178-.003076262164541.028431391768208-.006152524325444.042274571521375-.009228786491803.018481606261048-.004614393259544.035377014888581-.009997852035667.052296456828117-.014612245300668.010742884311185-.003076262160903.021533835148148-.006176557631989.030762621694521-.009252819796529.026917293927909-.008459720971587.051527391262425-.017664474180492.073085259717118-.027686359499057.038429243835708-.017664474155026.077627553157981-.033069818302465.116104863524015-.046143932509949.001538131096822,0,.002283163341417,0,.003821294407317-.000745032240957.036939179295587-.012329081991993.073830292034472-.021533835168157.109231340242331-.027686359495419.074575324242687-.013843179784089.143046190782115-.01307411423295.19688077871615.006152524327263.039222342609719.013819146464812.119974224488033.04768206357403.177678173445202.131510207627798.047682063546745.068446833223788.093032897226294.186882926647741.103775781503828.281453955003599Zm3.36930017182749-10.846107302362725v-3.525396443475984c-3.221639587776735.119974224486214-6.147909940929821,1.4150565635573-8.361282687070343,3.469230625642012l2.492543537815436,2.491772355349894c1.571969967373661-1.418132825721841,3.617684308497701-2.320246706229227,5.868739149254907-2.435606537515923Zm0-4.510593435823466v-3.525372410170348c-4.463680437736912.123795518923544-8.515862744074184,1.924201985541004-11.548264141983964,4.792816456354558l2.49174832206154,2.490979256485844c2.391793834900454-2.231804168921371,5.563420129204133-3.636886913773196,9.056515819922424-3.758423302670053Zm-12.244292490566295,1.962679295927046c-2.867821371990431,3.032425431235424-4.668227838597886,7.084631770846499-4.791278325281382,11.548264141989421h3.524627377955767c.121536388867753-3.492302591916996,1.52657106710285-6.663928886161557,3.758423302670963-9.056515819926972l-2.491772355345347-2.491748322062449Zm-4.791278325281382,12.53266803547649c.050013293501252,1.828092826062857.382225574221593,3.586152621286601.952872206272332,5.234284110594672.020788802909919-.0015381310659.03999140815813-.002331229925403.060756177786061-.003076262160903.357615476911633-.016919441886785.835974243893361-.005383458779761,1.061286414347705-.179192271227294.346872592643194-.26763480851514.026148228440434-1.225121408051564.243817810058317-1.624266424210873.268403874091746-.493740077830807.939004993190792-1.665026897946518,1.140548231727735-1.67274158667351.178399172411446-.006897556570038.17073255026753.126150782152763.261458250879514.147660584021651-.106924143598008-.624457186630025-.173808812396601-1.258936258596805-.195366680876759-1.902668150343743h-3.525372410194905Zm17.035570815847677,18.020743774863149c-4.7351365407103-.123795518918996-9.033443853657445-2.034178357960627-12.244292490566295-5.080422935659954l-2.501746174155414,2.501770207383743c4.000654915039377,3.829153299207974,9.201845174045957,5.981767750618019,14.746038664721709,6.102535074025582v-3.523882345749371Zm0-4.509007238109916c-3.127020492863267-.107693209178251-6.071748418993593-1.23509522677341-8.45664469735857-3.220101456734483.053810554650227.065418637683251.100747585966019.128457978798906.136917699713194.189214156604066.162248796039421.279915823879492.726742903733793.849048358097207.367613329006417,1.076691758476954-.298397430201476.188421057722735-.792930606908158.061501210017013-1.069794201936929.056910850098575-.305319020053503-.003869361024044-.749069837685056.452186505239297-1.010528088585488.497585405511927-.333005379578026.05691085008948-.523757667224345.031531687205643-.835229211680598-.094619094916197-.076882520866093-.031507653937297-.173784779086418-.092263831738819-.28376115159972-.169939451461687l-.39683781954227.396813786268467c3.03240139790978,2.867845405291519,7.084583704247052,4.668251871877146,11.548264141983964,4.792047390774314v-3.524603344621937Zm0-1.23896458782292c-.49604727444239.036891112711601-1.245886177667671.024610097329059-1.423564351140158-.097695357086195-.369896492263251-.256098825422669-.810595080984058-.507559224291981-.860560307896776-.705978134052202-.089235636162812-.352256051441145-.57141569754549-.616790564508847-.57141569754549-.946719681920513,0-.366868296741814.506790158690819-.48684252125895.371458656665709-.859070243472161-.108438241390104-.296066200275163.17996133674751-.666755791420655.707564331707545-.92518584674508-1.54661483779546-.380687443186616-2.94554505827-1.138986067360747-4.092221781045737-2.173355187758716l-2.49715581417513,2.49715581412238c2.294891576681039,2.131873715126858,5.231952880719291,3.346973237796192,8.365894963430037,3.463102134634028v-.25225349772154Zm.762143951911639-4.710526443375784c.375279951099401-.063087407699641.773679935021391-.171525649089745,1.11204474009628-.205340499633166.370689591140945-.036915146021784-.015357277537078.490663815666267.204595467420404.512197650805319.262996382002711.026148228407692,1.344302533741939.21069992516459,1.420464055676348-.034607949372003.062294308896526-.201495171953866.076906554171728-.292244905875123.309188381095737-.342234166093476.437574259940448-.095364127188077.784398785957819-.08154498071417,1.155088377130596-.36453706681823.133841437580486-.102285717062841.409960000339197-.139200863048245.489125684542159-.290706774781938.079237784146244-.151529945011134-.056886816761107-.868299029958507-.323752559779678-.751377034297548-.12997207656008.057679915649715-.286837413790636.243024711176986-.564494107646169.383018673104743-.251484432144935.126102715541492-.42990763785383.183758597879205-.608306810287104-.055420785611204-.163065928087235-.217621515010251.095316060593177-.38835406529688.229157498204586-.534476518248994.206878630726351-.226898368115144.394506589624143-.456848965091922.624481219898371-.456848965091922.089211602857176,0,.564494107671635-.236103121327687.52452673280095-.452186505261125-.052344523453939-.279939857222416-.604509549166323.025379162882018-.732943494598658-.089980668406497-.089187569572459-.079237784124416-.001538131093184-.280708922740814-.070778063154648-.311471544402593-.064577472179735-.029993556148838-.268379840779744.248384136668392-.110721404716969.399169049469492.081520947431272.078420651958368-.132303306458198.296835265824484-.372227722238677.139921862006304-.184575730016149-.122257387822174-.232281826898543.550674961232289-.216131450526518.673725447919423.016198443008761.123050486647116.270711070694233.089187569541537.101564718119334.310678445541271-.169987518018388.223029007127479-.233026859161328.057703948959897-.358408575768408.166887222581863-.150736846182554.132303306505491-.184551696755079.183061632249519,0,.374534918850259.147660584047117.152274977277557-.08690440621649.44146765426558-.141532092977286.170756583571347-.036146080467006-.179961336780252-.414502293719124-.125357683300535-.486001355810004-.329160051896906-.073830292007187-.209954892867245-.381482934979431-.18919012326478-.755246395345239-.380687443184797-.283040152662579-.145377420676596-.246894072190116.283785184938097.233026859166785.392968458589166.407580703871645.09308096384666.38683756834871.14153209297001.269917971894756.396837819516804-.095364127177163.209209860686315-.076882520885192-.160734698214583-.561417845507094-.289144610400399-.311471544430788-.082290012953308-.326059756449467-.248408169978575-.571391664238035-.245355941122398-.248408170004041.002331229952688-.166911255861123.237641252419053-.429162605613783.176140042369298-.19839487648278-.046937031340349-.229157498172754.220697777200257-.412171063804635.298397430200566-.223077073714194.095364127209905-.209954892895439.499123536639672-.436853261012402.610638040185222-.33759573952193.165349091483222-1.02980279375879.040760473732007-.998247073241146-.293783036966488.031529376336039-.334543510645744.046937031362177-.584489811755702.240741547899233-.702156839628515.170684483671721-.102285717059203.452186505241116.197625810902537.689082725399203.091518799446931.247639104456539-.109976372456003.185344795609126-.373765853304576.035352981632968-.542960272501659-.044605801413127-.057679915615154-.226105269283835-.147660583990728-.2222839748556-.204571434091122.003869360964018-.070008997607147.356870444672495-.103078815878689.535293650331369-.223029007122022.179192271252759-.119974224495309.371458656716641-.439905489891316.462977456189947-.511452618568001.097647290520399-.076113455341329.289168643711491-.095364127213543.306857151144868-.166094123742369.024610097335426-.090004701687576-.13537956862001-.253815662072157-.119974224487123-.363792034553626.015405344118335-.109976372452365.053810554618394-.194549548768919.139200863044607-.188397024412552.085366275168781.006921589849298.186858893343924.253022563238119.132303306483664.312240609948276-.062294308878336.066908702136061.044557734818227.179961336782071.160734698216402.132255239894221.116849895764972-.047682063603133.531400256058987-.209930859613451.652143546121806-.241486580132914.163786927132605-.043812702584546-.04076047367198-.414502293730038.012329081995631-.480665963599677.049965226908171-.062294308894707.09844038936717.020019737386974.161479730457359-.043043637038863.063063374451303-.063063374418562-.129203010978017-.125357683318725-.0984403893126-.259944153140168.022326933971272-.101516651477141.456055866226961-.219183679382695.336850707282792-.296114266868244-.119181125714022-.077651586434513-.279915823939518.146915551782513-.375279951098491.189190123270237-.216155483833063.095388160467337-.321469396436441-.140714960862169-.314595873210237-.319931265368723.003866981781357-.086880372931773.121512355623963-.394506589627781.01848160634745-.454517735190166-.143070224099574-.082290012962403-.166887222576406.283785184925364-.189214156605885.355332313571125-.034559882779831.108438241441036-.126871781085356.24533190787588.031555720517645.540653075888258.085366275150591.159196567146864.041529539284966.698287478631755-.124588617747577.757505525367378-.176885074641177.063832439973339-.254584727614201-.273787332889697-.337619772866674-.41296416266232-.013867213027879-.023841031783377-.02847945832491-.041553572526027-.043812702553623-.049989260220173-.001538131122288-.000769065543864-.003076262162722-.001514097755717-.004662459850806-.002307196609763-.006897556595504-.003076262195464-.013819146495734-.004614393234078-.021485768584171-.003869360998578h-.000793098852228c-.007690655393162.000793098803115-.015405344129249.005407492064478-.023071966243151.011535983137946-.00228316333596.001538131069537-.004614393229531.003869360989484-.006152524329991.005407492057202-.008459720940664.007666622141187-.016150376389305.016919441944992-.025403196187654.030738588387976-.013819146439346.021557868452874-.036146080473372.059218046710157-.054555586864808.091518799496043-.013074114224764.023071966241332-.039222342604262.077699653003947-.072316194220548.172270681327063-.020788802936295.060011145569661-.058473014474657.096157226036667-.125357683298716.110769471335516-.180730402327754.019995704076791-.363022969002486.032276719452057-.549112796828922.032276719452057-.071547128672137,0-.143046190761197-.001538131095003-.213800220606572-.004590359952999.029993556117915.110745438001686.061549276633741.230695629214097.102285717059203.308395282243509.097671323772374.184575730039796.284530217117208.333774445125528.253046596546483.469899046009232-.031555720513097.136869633153765-.602178319212726.260713218689489-.649115350575812.160734698252782-.058448981189031-.124588617783957.143791223003973-.374534918855716.127640846667418-.487587553501726-.029200457342085-.206109565151564-.133048338750086-.329160051891449-.119974224578982-.47220624262809-1.006682760844342-.100771619268926-1.926485148840584-.499916635486443-2.667840297790463-1.10978561009324l-2.496410781890518,2.496410781881423c1.231297965657177,1.096663429281762,2.780195966794054,1.843450103653595,4.490573698412845,2.080322290534241.241486580131095-.147660584028927.340672001691019-.411474098160397.531424289389179-.268427907372825.303778556959514.229205564734002.669856086869913-.076882520887011.912111732521225-.117642994624475Zm.222259941556331,5.94869793234102v3.525396443479622c1.427385645542017-.039967374877961,2.813241751837268-.251460398836571,4.137572614774399-.614459334557978-.275325463990157-.233819957991727-.400683147290692-.612945236800442-.741379182258243-.729843199151219-.586027942867076-.201495171922943-.743686378904385-.562210944337494-.426831375720212-1.085175512733258.171477582531224-.282247053837636.103847881437105-.393761557386824-.096902258250338-.694466184228077-.244562842293817-.366051164608507-.56062474664941-.533707452674207-.78985434471906-.632940940877234-.679084873358079.126919847702084-1.373502990995803.20687863072817-2.082605453826545.231488728068143Zm1.691968225222809-1.159726803696685c-.115383864598698-.124588617753034-.349203822557683-.133817404243018-.514528880760736-.089235636143712-.572977861896106.155375272752281-.381432475392103-.299935561291932-1.177439344462073-.183806664459553v.448365210811971c.57451599304477-.021533835148148,1.139010100687301-.08229001294967,1.691968225222809-.175322910208706Zm13.053301373976865,3.090874412388075l-2.501770207381924-2.501770207383743c-1.289722913568767,1.223559243671843-2.755537802921026,2.263335856163394-4.354449097552788,3.078569363739007-.526809896133273.397582851788684-1.170493721288949.68677552880763-1.657336242520614.907473305982421-.203778335286188.092287865012622-.424500145767524.213055188369253-.656012907169497.213055188369253-.074575324251782,0-.139176829765347-.024610097318146-.203754301954177-.064601505491737-1.695813552940308.567570369805253-3.499296281688657.89670638842108-5.371946842620673.945926583061009v3.523882345749371c5.54421752397684-.120767323407563,10.745359716394887-2.273381774817608,14.745269599199673-6.102535074025582Zm-4.931969252840645-25.488394218801659c-.004662459845349.020788802906281-.01540534412743.032324786038771-.028479458358561.040784507011267.580644484041841.626788416549971,1.102839986946492,1.307411420994868,1.562717147606236,2.031847128090703.053882654519839-.068422799948166.096157226042124-.12917897772968.170732550259345-.043812702610012.124588617747577.142253091924431-.129924009937895.400683147256132.239227450132603.333005379602582.222235908267976-.040760473732917.176861041280063.24376974344068-.003124328806734.39609278730768.113843080680454.205292433048271.223822105979707.412964162631397.327645954133914.623664087795987.129948043248078.058473014474657.228388432567954.129227044293657.248384136648383.213824253885832.058473014496485.247639104494738.17227068135071.52219550287009.199957040878871.795982835734321.176140042378393.443726784331375.33146724848848.898244519520631.463001489415547,1.362760106751011.181523501187257-.155327206137372.386070902017309-.07075402987266.407604737189104.188421057721825.021533835124501.25917508756811-.060756177772419.539884010312562-.173808812447533.772165837235661.157682469336578.762119918628741.256122858740127,1.545821738961422.283785184929002,2.347164000200792h3.524603344654679c-.063832440000624-2.28179342913154-.575236991955535-4.539000794250569-1.491218085522632-6.613170560417529-.0699609309886.056141784571082-.163786927101683.060756177801522-.282247053806714.210747991749486-.178399172398713.22528813714689-.466798750590897-.056165817833971-.625202218892809-.253046596521926-.295321168006922-.364537066816411-.990604484402866-1.389701434037306-1.303590126595736-1.441252858605367-.261506317492604-.043067670350865-.456848965137397-.382970606520757-.732174429072984-.43911239103727-.274508331825928-.056141784551073-.617535596746166-.210747991779499-.662141398168387-.501454766559618-.046937031363996-.297604331347429-.155327206100992-.419909785813616-.460670259542894-.46759184939765-.345310428259836-.05304148907635-.586027942816145-.189959188810462-.829052654020416-.448341177576367l-.843664899317446.843688932616715c.006921589852936.018409506425996.010790950904266.034559882793474.007714688705164.047633997021876Zm2.237187627757521,21.401579929814943l.1930114177012.193011417675734c2.868638504063711-3.031656365652452,4.668996904059895-7.083838671953345,4.792047390776133-11.548288175275957h-3.524603344654679c-.121512355615778,3.493119724058488-1.526595100442137,6.664746018304868-3.758399269387155,9.057308918785566l1.272010372798832,1.272010372797013c.00925281979471-.017688507490675.01766447414775-.035352981612959.02612419515026-.05304148907635.105386012532108-.223029007122022.060011145567842-.514528880763464.077699653000309-.71907628156805.010742884278443-.133817404268484.496071307752572-.101516651508064.530679257099109.119181125688556.029200457289335.186137894392232.125333650017637.323007527513255.293734970378864.785239951414042.121512355584855.333005379601673.179216304537476.639069431914322.097695357137127.893654159559446Zm-2.676348085386053,2.199503416188236c-.093056930561943.223822105932413-.564494107673454.626788416524505-.482949126955646.759091723031815.95133407515641-.605254581376357,1.841094840418009-1.298182634538534,2.657097413542942-2.069579406219418l-2.491772355371722-2.491003289800574c-.173808812451171.16229686259976-.353001083654817.318393134304642-.535272185315989.472230275936454-.043089135382615.285323315998539-.003866792776535.509097355336053.346875160877971.617535596718881.378356213253937.116921995666416,1.009759023092556.501454766554161.876710684369755.874427521008329-.149198715140301.333798478439348-.518350175216256.833667047309063-.696773380870582,1.165158329129554-.151529945014772.283016119350577.438367358792675.403759409415215.32608378972327.672139250194959Zm.58141354955842-14.583789868687745c-.005383458776123.014612245295211-.014588211983209.030017589426279-.025403196190382.044605801412217h2.59562023680337c-.013843179722244-.374534918824793-.04537486695699-.745224509963919-.089980668371936-1.112044740090823-.020764769626112.038453277085864-.043091703630125.076906554169909-.060756177781514.114590765737375-.193804516578894.403014377160616-.22302900712566.159965632652529-.209161794067768-.015357277560724.01840950636506-.223822105953332.103775781508375-.433031966612361.18688292663137-.662189464755102-.020019737410621-.119998257827319-.041556236586985-.238434351247633-.06537057103742-.356846411390507-.077699653063974.110745438025333-.190007255407181.189166089986429-.366099231199769.276863595029681-.114566732429012.058424947882486-.223004973839124.328390986342129-.265351645204646.431445768949743-.049965226939094.124588617753034-.335288542933995-.029224490590423-.569853533141213.083828144046493-.411426031561859.198418909795691-.832922015064469.228412465906331-.532193354911215.654474776017196.192266385407493.271456102972479-.460670259544713.195342647652978-.598332991528878.540629042604451Zm-.899037618342845-8.315881669928785l-2.491748322034255,2.491748322062449c.428321440138461.475330571410268.809008883379647.994425778809273,1.135885771907851,1.548922034439784.293038004705522.045350833657722.692928053111245.163041894837079.95056500960527.494509143345567.182268533422757.235310022496378.708309363981243.70597813405675.627533448816394.916726125808964-.049220194672671.129178977726042.060756177808798.289168643712401.180754435579729.373741820025316.183806664515942.128457978741608.313778741072383.125381716577976.414502293730038-.003052228882552.183806664488657-.234564990261788.21000295954218-.551419993467789.453772702978313-.751377034323923.298397430178738-.246100973340617.90978050265403.46451558723129.909035470380331.594487663781365-.000793098850409.12994804327991-.158451534913183.160734698223678-.203802368590914.391454360768876-.061501210044298.315316872122821-.332212280720341.691389922042617-.024610097330878.796727867987101.448365210830161.153044042798683.50527606095784-.023023899651889.720614412604846-.338364805083074.09918542163723-.145377420681143.07769965305306-.379942410939293.184551696780545-.523733633968732.067701800990108-.090773767205064.168449386952489-.129203010983474.258430055324425-.189214156553135-.168401320357589-.69908057748944-.391478394070873-1.3773723520153-.667548890271064-2.027232734800236-.066139636584921-.064625538831024-.143046190762107-.117667027932839-.239155350207511-.149198715113926-.160782764782198-.053065522387442-.0700089975835-.19688077869796-.280708922713529-.263020415305618-.24151061347402-.076113455346785-.335336609534352-.145353387377327-.357615476972569-.569108500900256-.017736574025548-.341465100547794.288375544880182.112283569065767.364489000225149.053065522376528.016198442959649-.013074114229312.030810688282145-.033069818277909.045398900248983-.056141784542888-.537600846950227-1.017473711794082-1.204356638372701-1.954988640511147-1.980343770061154-2.790938851121609Zm-3.023220678014695,3.38311931829594c-.118388026834509-.001538131104098-.216083383913428-.024610097339973-.3021946912977-.057679915649715l-.823693228547199.822924163006974c.157682469336578.042274571480448.332236314054171-.016198442959649.529117092723027.071499062079965.21920771274381.096109159419939.112283569116698-.612176171252941.447572112008856-.547574665761204.342258199425487.065370571069252.429907637852011.285323316003996.146915551802522.392223426319106-.226874334837703.073830292012644.056165817830333.262996381972698-.21841461384065.35607734587029-.249970334409227.085366275121487.203033302968834.306088085597366.199212008596078.404528474973631-.004662459850806.136124600881885-.341489133828873.186882926625003.164555992651003.34300323161915.505252027647657.156120304959586.001514097757536-.425317277906288.078420651927445-.506814192031925.093850029423265-.099233488203026.36379203458273.156865337198724.438391392111953.043836735865625.02766232621434-.04155357255695.077675619741058-.113797666886057.139176829788994-.196880778695231-.23610312132223-.396837819547727-.503737929888302-.773679935013206-.799059097924328-1.125142887596667Zm-1.284315421455176,13.083342996675128c.006128491051641.173039746870927-.168425353665953.034583916069096-.2214908760252.093801962779253-.053041489101815.05767991564062,1.385880139579967.731405363532758,1.611961375554529.769858640614984.154606207173856.026124195092052.449134276414043.136100567602625.969815681473847.032276719472065.349131722661696-.069191865457469.446033980908396.091542832760751.609051842522604.085366275121487.232281826896724-.008435687630481.383018673081096-.322214428681036.517605142866159-.515273912997145.356822378114884-.509097355337872.289168643716039-.577520155256934.383761134586166-.656757939355884.120721827515808-.101516651506245.471439747894692.677546742284903.4268339464561,1.17128682011753-.007666622088436.078444685264913-.016919441943173.151505911726417-.027686359506333.2214908760252l.037684211542.037684211542c2.054174062122911-2.213370629193378,3.349256401128514-5.139665015683931,3.469254658955833-8.361304603462486h-2.679448380824397c.092311898304615.152274977255729.252301564285517.349155755948232.420702884643106.696773380850573.135331502055124.278425759406673.215362384984473.72061441263395.442981752061314.742172281083185.366820230119629.034607949406563.744455444422783.338388838392348.755246395321592.593694564964608.021533835140872.533755519283659-1.63428830956218.662934497013339-1.85195789118734.594511697094276-.183013565663714-.05767991564062-.30452850940128-.069984964296964-.316806936652938.216876482800217-.013867213032427.325290690867405-.598357024779034.327621920765523-.828331655053262.522171469563546-.258381988767724.218414613864297-.286837413786998.617583663337427-.459877160696124.895961356154658-.103823848128741.166911255881132-.715206920549463.744479477727509-.882142209713493.861353406804483-.398351917339824.278425759408492-1.148190820569653.292244905847838-.805187588945046.476051570341951.244562842326559.130789208717033.799852196754728.176885074588427.729819165866502.047706096884212-.079958783057009-.148429649567333.042298604772441-.162272829311405.136124600916446-.040760473704722.072316194158702.091494766189498.333005379576207-.088442537309675.327669987360423-.256098825431764-.005407492089944-.158427501608458-.040015441436481-.41683352362088.106852043727486-.426855408972187.238434351243995-.015357277537987.489125684536702-.279915823881311.607585811294484-.255305726574079.134586469788701.027686359526342.316855003185992.326852855278048.179937303442784,1.238171488970693-.135331502029658.912111732539415-.570646631967975,1.546638871104733-.744431411138066,1.83270721934241-.187627958835947.306088085630108-.375303984375932.072292160943107-.626788416517229-.056910850098575-.319931265354171-.164580025932082-.802135360074317-.157658436055499-1.139010100692758-.267634808509683-.178399172376885-.057679915642439-1.155088377130596-.427600441240429-1.14972895163919-.293013971420805Zm16.794853301267722-7.121570950142996h-3.523092055094821c-.124585809518976,4.735160573996836-2.034968648638824,9.033443853682911-5.081213226252657,12.244292490600856l2.501770207380105,2.501770207385562c3.829946398065658-4.000654915018458,5.982560849475703-9.201845174055052,6.102535073967374-14.746062697986417Zm-6.102535073967374-15.7296494593229l-2.610208448795674,2.610184415461845c.239155350211149.416857556957439.68833769318735.942081255377161,1.321999633011728,1.587351278214555.259968186430342.265303578646126.53608674924908.525271765061916.7675754772863.759836755300967.222235908273433.223798072645877,1.645752192851432,1.994956015374555,1.370450762166001,2.251799872996344-.020019737408802.019250671867667-.041505505967507.036939179300134-.063063374416743.054603653479717,1.107454380171475,2.325678231624806,1.722706813554396,4.888949649052847,1.791898679022779,7.481469590382403h3.523882345692982c-.119974224491671-5.54419349064392-2.272588675901716-10.745359716395797-6.102535073967374-14.74524556583583Zm-15.441297947776548-3.275474175733507c2.944751959490532.076161521928043,5.771836891057319.835950210610463,8.300548425726447,2.201834646080897.236103121300403-.03693917927103.469129980463549-.066163669869638.62520221883824-.139200863049155.313802774349824-.146122452926647.930569305550307.186089827824617,1.228221703515374.359153608011184.271456102938828.156865337228737.48220409471287.389147164130009.780601524920712.556779418937367.305319020075331.171525649120667.79598283568339.663727595846467.903627978297664,1.159774870288857.108462274636622.49602324116222.422986047948143.462208390646083.266120710717587.662958530328069-.078444685237628.099954487129253.041529539250405.138407764219664.191473286580731.227619367075022l2.450266849433319-2.449473750544712c-4.000702981635186-3.829946398038373-9.201845174053233-5.982560849476613-14.746062698030073-6.102559107303023v3.523113280175494Zm0,4.50977630365287c2.990895892000481.103847881462571,5.74415053152552,1.151291116068933,7.976747799330042,2.850974029975987-.252229464440461-.333798478412064-.507607290885062-.679132940009367-.626043384329023-.806004721090176-.21608338394617-.229950596974959-1.025164367174511-.512990749663004-.943595353177443-.644476924008814.080703815296147-.132303306460926.800597229024788.442212686533821.926699944564461.341441067265805.151481878450795-.121464289025425-.361460804646413-.781346557135294-.322983494228538-.806749753329314.053017455767986-.034607949370184.660603267066108.552213092300917.959000697270312,1.078253922887598.124588617749396.185344795554556.455310834046031.091494766138567.712947790520047.270711070696052.226826268246441.159196567160507.242231612341129.413757261470892.432959866739111.577568221857291.030762621665417.026917293973383.434522031082452.259968186446713.199957040878871.233026859162237-.067677767703572-.007690655400438-.171525649142495-.151529945044786-.249177235551542-.078444685274007-.048451129099703.046143932533596.029224490563138.293783036969216.168425353638668.564494107696191l1.170541787874754-1.171286820139358c-.169987518018388-.3445413627378-.50527606095784-.799059097931604-.739096018951386-.85673901354312-.24148658010381-.059218046681053-.389916229694791.143815256331436-.556034386701867.281453955003599-.166118157021629.137662731955061-.373765853304576.183806664463191-.399890048427551.091518799472396-.029224490594061-.104592913699889.033814850576164-.360691739108915.021533835171795-.468336881633149-.016943475220614-.13458646984509-.122305454442539-.240717514579956-.157682469363863-.370689591147311-.083828144048312-.306112118956662.040760473699265-.647529152892275-.145377420689329-.850610522496936-.204547400828233-.223029007122022-.341465100516871-.560624746654867-.501406699935615-.816723572082992-.174601911279751-.279194824955084-.489128225468448-.710640593904827-.507607290830492-1.076715791791685-2.28025529810111-1.152805213819192-4.800483078495745-1.79653710556704-7.419920313801413-1.868036167650644v3.525372410170348Zm0,4.510593435823466c2.25028577523517.115359831286696,4.296769181903073,1.017473711794082,5.868739149276735,2.435606537515923l2.49256545420576-2.491772355349894c-2.214163728085623-2.054174062084712-5.139689048963191-3.349256401155799-8.361304603482495-3.469230625642012v3.525396443475984Zm0,4.51826005793464c.335288542933995.03306981831156.665217660374765.100747585961471.986687056815754.199933007576874.083828144076506-.205340499664089.293783036971035-.307602183438576.466053718327203-.424500145765705.203826401875631-.138455830809107.351486985862721-.294576135799616.322262495272298.081496914095624-.026941327261738.264582579713533-.136917699712285.424524179074979-.273787332869688.532217388248682.345286394980576.150736846151631.673701414607422.338388838361425.979020434715494.564494107643441.066884668794955.049965226919085.132255239832375.10226168374993.196880778690684.155351239443007l.338388838385072-.338412871664332c-.003076262215473-.011535983137037-.006128491048003-.023071966268617-.006128491048003-.037684211571104.006128491048003-.192218318838968.28453021716814-.421447916880425.605999613615495-.562162877740775l1.098970625916991-1.098994659206255c-.024610097334516-.005383458777033-.051503358006812-.009997852032939-.083035045245197-.013867213053345-.147660584021651-.018409506394164-.357615476912542.287654545953046-.501406699942891.203081369635584-.16232089587902-.094643128229109.485256323578142-.665265726916004.774449000595268-.555289354434535.039222342578796.014612245267017.082241946360227.031531687209281.126871781056252.049220194641748l.139969928624851-.139993961874097c-1.392032663903592-1.241247751130686-3.191621998350456-2.03338525916206-5.171196702909583-2.147206959348296v3.532318033373485Zm-.492201946710338.959793796126178c-.413012229246306,0-.813671343224996.061525243355391-1.198204114069085.18147543453415-.050758325766765.05539675234013-.08923563618373.101540684822794-.059963079032968.143046190815767.096902258306727.141532092977286.392223426375494-.155327206157381.431421735671393.117715094500454.029224490604065.19839487644731-.326852855224388.052272423497016-.294552102488524.19839487644731.026124195122065.11687392904696.273018267316729.068446833228336.279170791673096.229181531447466.005383458774304.14766058402256-.149198715143029.437574259978646-.268379840779744.513735781912146-.158451534940468.101516651508064-1.002885499749027.213031155084536-1.083637381692824.409118834922083-.070754029839918.171525649114301-.144584321827097.326107823007987-.276863595028772.466846817153964-.143791222995787.151529945032053-.821386031873772.553703156772826-.822924162972413.658320103784718-.003821294405498.246870038889938.325338757464124-.067677767684472.416833523597234-.164580025963005.14537742074026-.153813108343456.345334461571838-.153068076103409.562980009889543-.277632660576273.299911528014491-.170756583562252.415295392582266.426831375692927.093825996139458.448365210864722-.200750139740194.013819146439346-.369896492315092.577568221873662-.684468332186952.469129980492653-.079189717512236-.02768635952998-.303011823464658-.166142190313622-.351486985930023-.023071966268617-.051503357952242.152250943964646.467591849423115.176116009066391.630657777599481.283785184927183.414502293698206.273787332871507-.314547806619885.254560694311294-.431445768954291.32913601855762-.115383864567775.073830292007187-.058448981162655.233026859166785.099233488203026.168449386952489.152250943946456-.063087407728744.359129574730105-.222283974857419.453722359018684.036146080470644.127667157258657.349900788207378-.576027813460314,1.626549587548652-.780599247603277,1.491963117758132-.111514503547369-.073037193178607-.226874334802233.030786654970143-.331467248479385.075368423105829.139993961875007.289961742510059.316085937660318.559134682149306.518350175131673.806004721056524.138455830836392-.228436499210147.356822378115794-.551444026774334.449134276389486-.553727190086647.130717108851059-.00384532768112.08690440623559-.106900110315109.136124600881885-.199187975311361.060756177806979-.111514503571016.216083383995283.005383458810684.226874334862259-.146891518494158.010742884251158-.151505911700951.398375950640002-.369151460046851.442981752058586-.592156433860509.02307196624588-.119998257800034-.119976515484268-.239227450079852-.060756177807889-.338412871695255.072292160946745-.120767323320251.124588617752124-.139200863046426.202288270780627-.165349091479584.0776275531598-.026917293955194.261434217595706.156096271679417.317600035452415.076906554199013.056141784548345-.079213750785129.32992911743986-.018457573007254.539090911507628.11379766688151.095364127179892.060756177810617.280708922739905-.009204753203448.394554656180844.152274977277557.157658436083693.222283974861057-.007690655391343.241486580105629.02074073634958.29070677481468.027686359521795.049220194641748.096157226036667-.02768635952998.13766273197416.013074114171104.088490603928221.086159373970077-.410656966014358.378404279845199-.353746115890317.53760084699752.056141784543797.158427501610277-.422986047978156.942874354215746-.554496255601407,1.067462971994246-.180730402362315.164580025930263-.479127832535596-.019226638560212-.596794860434784.014612245291573-.12689581439281.03614608047792-.151505911729146.144584321853472-.346848559352111.09690225828308-.150736846188011-.036146080497929-.331467248484842.024610097334516-.498354471062157.103823848095999.706026200619817.619866826702491,1.630418948568149.997478007697282,2.641740136005865.997478007697282.217645548287692,0,.430652670068412-.019995704087705.638348432934436-.053834587908568.129924009968818-.166911255859304.183782631211216-.372203688933951.211468990690264-.582206648414285.016150376386577-.113797666888786-.003845327688396-.261458250932264.056165817874898-.362974902445785.051503357978618-.08615937396462.379101245468519-.489125684560349.50986642090902-.483742225753304.114590765718276.004614393255906.193035450956813.105337945939027.358360509185331.053834587903111.320724364177295-.100771619245279.519143273962982-.015381310817247.522219536122066.1230504867126.004590359958456.193035450947718-.403759409417034.137662731976889-.386839967506603.24610097333607.010742884307547.076113455344966.306857151172153.190752287669966.403759409453414.079982816363554.181499467847971-.20457143411295.154606207173856-.472999341509421.107669175831688-.531424289367351-.128457978767983-.162272829315043-.120743290037353-.229181531451104.063832439975158-.16614219033363.113821700193512.039222342633366.113028601361293-.409887900443209.221490876032476-.58215858182848.147660584018013-.231488728068143-.272994234064754-.069239932061464-.448341177561815-.04462983472331-.165397158070846.0230959995788-.302266791193688-.329929117411666-.3061121189603-.453724636328843-.003076262133618-.089211602857176.313778741048736.315316872112817.473720340469299.32375255977604.180754435605195.009252819796529.394554656246328-.200702073099819.396837819547727-.354491148162197.003869360994941-.153861174936537-.344541362710515-.174601911277932-.397582851786865-.361484837911121-.029200457260231-.102309750360291.282992086076774-.000793098854047.259175087594485-.101516651535349-.01999811197129-.088442537280571.031555720464894-.301497725673471-.165325058223971-.386070901959101-.196135746455184-.083828144050131-.376097083202694-.712154691662363-.533010487026331-.755246395314316-.139200863079168-.037684211567466-.255305726568622.150736846181644-.340672001715575.219952744930197-.084597209599451.068470866541247-.219952744937473-.049965226940913-.14919871508755-.115335797957414.100771619269835-.093825996112173.334543510699405-.295321168058763.38301867307564-.453748669643574.081496914153831-.2661207107476.423707046942582.013843179727701.362950869137421-.357615476941646-.065346537732694-.402245311624938-.408373802689312-.324545658602801-.249153202246816-.5183501751535.163041894855269-.196880778696141.041529539244948-.51755707630673-.289937709234437-.453748669621746-.153044042828697.029224490542219-.313778741054193-.219952744983857-.329929117413485-.435291096657238-.009997852068409-.118436093423043-.349948854831382-.099978520443983-.336874740596613-.225360237051063.026941327231725-.256098825434492-.356822378114884-.282992086078593-.591387368322103-.26530357862066-.234564990256331.016919441917707-.688337693181893-.344541362705058-.739096018953205-.432983900011095-.049965226907261-.089235636164631-.376024983354.07844468527037-.268379840774287-.26609667746925.106131044743961-.339157903908017.427576407903871.061525243350843.562955976576632-.036146080446997.146146486233192-.104592913699889.100723552683121-.211493023993171.0769065541499-.293807070248477-.026148228434977-.00074503227097-.051551424601712-.003052228885281-.0769065541499-.003052228885281Zm-15.238240611479341-11.918977766409625l2.501746174155414,2.501770207385562c3.21084863690885-3.046268610982224,7.509155949855995-4.957420515595004,12.244292490566295-5.081216034513091V.990532384485959c-5.544193490675752.11999825782641-10.745383749682333,2.272612709264649-14.746038664721709,6.102559107303023Zm-6.798587455855341,15.441273914441808h3.523906378998618c.123795518951738-4.735136540706662,2.034923390232507-9.033419820368181,5.080422935659954-12.243499391732257l-2.501770207381924-2.501746174103573c-3.829177332516338,3.999885849440034-5.981791783926383,9.20105207519191-6.102559107276647,14.74524556583583Z" fill="#009edb"/><g><path d="m99.479216962286955,28.22517101323956c0,2.8056640625-.49609375,5.2646484375-1.4873046875,7.3779296875-.9912109375,2.1142578125-2.41015625,3.7451171875-4.2568359375,4.892578125-1.845703125,1.1484375-3.962890625,1.72265625-6.3505859375,1.72265625-2.361328125,0-4.46875-.5673828125-6.3212890625-1.703125-1.8525390625-1.134765625-3.287109375-2.755859375-4.3046875-4.86328125-1.017578125-2.1064453125-1.533203125-4.5302734375-1.546875-7.2705078125v-1.408203125c0-2.8056640625.505859375-5.2744140625,1.517578125-7.40771484375,1.0107421875-2.13330078125,2.439453125-3.7705078125,4.28515625-4.912109375,1.8466796875-1.1416015625,3.95703125-1.71240234375,6.3310546875-1.71240234375,2.375,0,4.4853515625.57080078125,6.3310546875,1.71240234375,1.8466796875,1.1416015625,3.275390625,2.77880859375,4.2861328125,4.912109375s1.5166015625,4.59619140625,1.5166015625,7.38818359375v1.271484375Zm-5.94921875-1.2919921875c0-2.9873046875-.53515625-5.25732421875-1.6044921875-6.81005859375-1.0703125-1.55224609375-2.5966796875-2.32861328125-4.580078125-2.32861328125-1.9697265625,0-3.490234375.7666015625-4.5595703125,2.29931640625-1.0703125,1.533203125-1.611328125,3.78076171875-1.6240234375,6.74169921875v1.3896484375c0,2.91015625.5341796875,5.1669921875,1.6044921875,6.771484375,1.0693359375,1.6044921875,2.609375,2.4072265625,4.6181640625,2.4072265625,1.970703125,0,3.484375-.7734375,4.541015625-2.3193359375s1.591796875-3.7998046875,1.6044921875-6.76171875v-1.3896484375Z" fill="#231f20"/><path d="m118.521209149786955,34.35114757573956c0-1.109375-.390625-1.9599609375-1.173828125-2.5546875-.783203125-.5927734375-2.19140625-1.2197265625-4.2275390625-1.8779296875-2.03515625-.6591796875-3.646484375-1.30859375-4.8330078125-1.947265625-3.236328125-1.7490234375-4.853515625-4.103515625-4.853515625-7.0654296875,0-1.5390625.43359375-2.91259765625,1.30078125-4.11962890625.8681640625-1.20654296875,2.1142578125-2.1494140625,3.73828125-2.82763671875s3.447265625-1.017578125,5.4697265625-1.017578125c2.03515625,0,3.8486328125.36865234375,5.4404296875,1.10546875,1.591796875.7373046875,2.828125,1.77783203125,3.708984375,3.12158203125s1.3212890625,2.87060546875,1.3212890625,4.57958984375h-5.87109375c0-1.3046875-.4111328125-2.3193359375-1.2333984375-3.04345703125s-1.9765625-1.0859375-3.4638671875-1.0859375c-1.435546875,0-2.55078125.30322265625-3.3466796875.91015625-.7958984375.6064453125-1.193359375,1.40576171875-1.193359375,2.39697265625,0,.9267578125.4658203125,1.70263671875,1.3984375,2.3291015625.9326171875.6259765625,2.306640625,1.212890625,4.1201171875,1.76171875,3.33984375,1.00390625,5.7734375,2.25,7.2998046875,3.7373046875s2.2900390625,3.33984375,2.2900390625,5.55859375c0,2.4658203125-.93359375,4.3994140625-2.798828125,5.8017578125-1.8662109375,1.4033203125-4.3779296875,2.1044921875-7.53515625,2.1044921875-2.19140625,0-4.1875-.4013671875-5.98828125-1.2041015625-1.80078125-.8017578125-3.173828125-1.9013671875-4.119140625-3.296875-.9462890625-1.396484375-1.4189453125-3.0146484375-1.4189453125-4.853515625h5.890625c0,3.14453125,1.87890625,4.7158203125,5.6357421875,4.7158203125,1.396484375,0,2.4853515625-.283203125,3.2685546875-.8505859375.783203125-.568359375,1.173828125-1.3603515625,1.173828125-2.3779296875Z" fill="#231f20"/><path d="m145.072966962286955,35.95563976323956h-10.2939453125l-1.95703125,5.87109375h-6.2431640625l10.607421875-28.49462890625h5.4404296875l10.666015625,28.49462890625h-6.2431640625l-1.9765625-5.87109375Zm-8.708984375-4.755859375h7.1240234375l-3.5810546875-10.66552734375-3.54296875,10.66552734375Z" fill="#231f20"/><path d="m173.644256024786955,35.95563976323956h-10.2939453125l-1.95703125,5.87109375h-6.2431640625l10.607421875-28.49462890625h5.4404296875l10.666015625,28.49462890625h-6.2431640625l-1.9765625-5.87109375Zm-8.708984375-4.755859375h7.1240234375l-3.5810546875-10.66552734375-3.54296875,10.66552734375Z" fill="#231f20"/></g></g></g></svg>